<svg xmlns="http://www.w3.org/2000/svg" xmlns:xlink="http://www.w3.org/1999/xlink" width="1080" zoomAndPan="magnify" viewBox="0 0 810 809.999993" height="1080" preserveAspectRatio="xMidYMid meet" version="1.0"><defs><clipPath id="bb517f9da7"><path d="M 20.25 20.25 L 789.75 20.25 L 789.75 789.75 L 20.25 789.75 Z M 20.25 20.25 " clip-rule="nonzero"/></clipPath><clipPath id="d835b35a15"><path d="M 39.4375 39.4375 L 770.5625 39.4375 L 770.5625 770.5625 L 39.4375 770.5625 Z M 39.4375 39.4375 " clip-rule="nonzero"/></clipPath><clipPath id="8773f60061"><path d="M 405 39.4375 C 203.105469 39.4375 39.4375 203.105469 39.4375 405 C 39.4375 606.894531 203.105469 770.5625 405 770.5625 C 606.894531 770.5625 770.5625 606.894531 770.5625 405 C 770.5625 203.105469 606.894531 39.4375 405 39.4375 Z M 405 39.4375 " clip-rule="nonzero"/></clipPath><clipPath id="491a3a05f4"><path d="M 240.988281 192 L 568.738281 192 L 568.738281 618.984375 L 240.988281 618.984375 Z M 240.988281 192 " clip-rule="nonzero"/></clipPath><clipPath id="9051390fe9"><path d="M 501 525 L 566 525 L 566 606 L 501 606 Z M 501 525 " clip-rule="nonzero"/></clipPath><clipPath id="afb50efb43"><path d="M 668.472656 351.785156 L 720.101562 568.46875 L 505.605469 619.574219 L 453.976562 402.890625 Z M 668.472656 351.785156 " clip-rule="nonzero"/></clipPath><clipPath id="94bc95a241"><path d="M 720.027344 568.171875 L 668.402344 351.488281 L 453.90625 402.59375 L 505.53125 619.277344 Z M 720.027344 568.171875 " clip-rule="nonzero"/></clipPath><clipPath id="f8a89da78e"><path d="M 720.027344 568.171875 L 668.402344 351.488281 L 453.90625 402.59375 L 505.53125 619.277344 Z M 720.027344 568.171875 " clip-rule="nonzero"/></clipPath><clipPath id="4828694dd0"><path d="M 528 362 L 661 362 L 661 543 L 528 543 Z M 528 362 " clip-rule="nonzero"/></clipPath><clipPath id="2e9220ee25"><path d="M 668.472656 351.785156 L 720.101562 568.46875 L 505.605469 619.574219 L 453.976562 402.890625 Z M 668.472656 351.785156 " clip-rule="nonzero"/></clipPath><clipPath id="06ad761258"><path d="M 720.027344 568.171875 L 668.402344 351.488281 L 453.90625 402.59375 L 505.53125 619.277344 Z M 720.027344 568.171875 " clip-rule="nonzero"/></clipPath><clipPath id="474ecf3944"><path d="M 720.027344 568.171875 L 668.402344 351.488281 L 453.90625 402.59375 L 505.53125 619.277344 Z M 720.027344 568.171875 " clip-rule="nonzero"/></clipPath></defs><g clip-path="url(#bb517f9da7)"><path fill="#004aad" d="M 405 789.75 C 192.4375 789.75 20.25 616.375 20.25 405 C 20.25 193.625 192.4375 20.25 405 20.25 C 617.5625 20.25 789.75 192.4375 789.75 405 C 789.75 617.5625 616.375 789.75 405 789.75 Z M 405 44 C 205.5 44 44 205.5 44 405 C 44 604.5 205.5 766 405 766 C 604.5 766 766 604.5 766 405 C 766 205.5 603.3125 44 405 44 Z M 405 44 " fill-opacity="1" fill-rule="nonzero"/></g><g clip-path="url(#d835b35a15)"><g clip-path="url(#8773f60061)"><path fill="#ffffff" d="M 39.4375 39.4375 L 770.5625 39.4375 L 770.5625 770.5625 L 39.4375 770.5625 Z M 39.4375 39.4375 " fill-opacity="1" fill-rule="nonzero"/></g></g><g clip-path="url(#491a3a05f4)"><path fill="#004aad" d="M 263.992188 192.054688 C 251.128906 192.054688 240.890625 202.421875 240.890625 215.28125 L 240.890625 595.121094 C 240.890625 607.984375 251.128906 618.351562 263.992188 618.351562 L 546.007812 618.351562 C 558.867188 618.351562 569.109375 607.984375 569.109375 595.121094 L 569.109375 309.707031 L 484.152344 309.707031 C 466.753906 309.707031 451.582031 297.019531 451.582031 280.167969 L 451.582031 192.054688 Z M 467.738281 192.054688 L 467.738281 280.167969 C 467.738281 287.089844 474.332031 293.546875 484.148438 293.546875 L 569.109375 293.546875 L 467.738281 192.050781 Z M 467.738281 192.054688 " fill-opacity="1" fill-rule="nonzero"/></g><path fill="#ffffff" d="M 291.582031 297.734375 L 430.917969 297.734375 C 431.386719 297.734375 431.851562 297.78125 432.308594 297.871094 C 432.769531 297.964844 433.214844 298.097656 433.648438 298.277344 C 434.082031 298.457031 434.492188 298.675781 434.882812 298.9375 C 435.273438 299.199219 435.632812 299.492188 435.964844 299.824219 C 436.296875 300.15625 436.59375 300.515625 436.851562 300.90625 C 437.113281 301.296875 437.332031 301.707031 437.511719 302.140625 C 437.691406 302.574219 437.828125 303.019531 437.917969 303.480469 C 438.007812 303.941406 438.054688 304.402344 438.054688 304.871094 L 438.054688 315.582031 C 438.054688 316.050781 438.007812 316.515625 437.917969 316.972656 C 437.828125 317.433594 437.691406 317.878906 437.511719 318.3125 C 437.332031 318.746094 437.113281 319.15625 436.851562 319.546875 C 436.59375 319.9375 436.296875 320.296875 435.964844 320.628906 C 435.632812 320.960938 435.273438 321.257812 434.882812 321.515625 C 434.492188 321.777344 434.082031 321.996094 433.648438 322.175781 C 433.214844 322.355469 432.769531 322.492188 432.308594 322.582031 C 431.851562 322.675781 431.386719 322.71875 430.917969 322.71875 L 291.582031 322.71875 C 291.113281 322.71875 290.648438 322.675781 290.1875 322.582031 C 289.730469 322.492188 289.28125 322.355469 288.851562 322.175781 C 288.417969 321.996094 288.003906 321.777344 287.617188 321.515625 C 287.226562 321.257812 286.867188 320.960938 286.535156 320.628906 C 286.203125 320.296875 285.90625 319.9375 285.648438 319.546875 C 285.386719 319.15625 285.167969 318.746094 284.988281 318.3125 C 284.808594 317.878906 284.671875 317.433594 284.582031 316.972656 C 284.488281 316.515625 284.445312 316.050781 284.445312 315.582031 L 284.445312 304.871094 C 284.445312 304.402344 284.488281 303.941406 284.582031 303.480469 C 284.671875 303.019531 284.808594 302.574219 284.988281 302.140625 C 285.167969 301.707031 285.386719 301.296875 285.648438 300.90625 C 285.90625 300.515625 286.203125 300.15625 286.535156 299.824219 C 286.867188 299.492188 287.226562 299.199219 287.617188 298.9375 C 288.003906 298.675781 288.417969 298.457031 288.851562 298.277344 C 289.28125 298.097656 289.730469 297.964844 290.1875 297.871094 C 290.648438 297.78125 291.113281 297.734375 291.582031 297.734375 Z M 291.582031 297.734375 " fill-opacity="1" fill-rule="nonzero"/><path fill="#ffffff" d="M 291.582031 414.195312 L 518.417969 414.195312 C 518.882812 414.195312 519.347656 414.238281 519.808594 414.332031 C 520.269531 414.421875 520.714844 414.558594 521.148438 414.738281 C 521.582031 414.917969 521.992188 415.136719 522.382812 415.398438 C 522.769531 415.65625 523.132812 415.953125 523.464844 416.285156 C 523.792969 416.617188 524.089844 416.976562 524.351562 417.367188 C 524.613281 417.757812 524.832031 418.167969 525.011719 418.601562 C 525.191406 419.035156 525.324219 419.480469 525.417969 419.9375 C 525.507812 420.398438 525.554688 420.863281 525.554688 421.332031 L 525.554688 432.042969 C 525.554688 432.507812 525.507812 432.972656 525.417969 433.433594 C 525.324219 433.894531 525.191406 434.339844 525.011719 434.773438 C 524.832031 435.207031 524.613281 435.617188 524.351562 436.007812 C 524.089844 436.394531 523.792969 436.757812 523.464844 437.089844 C 523.132812 437.417969 522.769531 437.714844 522.382812 437.976562 C 521.992188 438.238281 521.582031 438.457031 521.148438 438.636719 C 520.714844 438.816406 520.269531 438.949219 519.808594 439.042969 C 519.347656 439.132812 518.882812 439.179688 518.417969 439.179688 L 291.582031 439.179688 C 291.113281 439.179688 290.648438 439.132812 290.1875 439.042969 C 289.730469 438.949219 289.28125 438.816406 288.851562 438.636719 C 288.417969 438.457031 288.003906 438.238281 287.617188 437.976562 C 287.226562 437.714844 286.867188 437.417969 286.535156 437.089844 C 286.203125 436.757812 285.90625 436.394531 285.648438 436.007812 C 285.386719 435.617188 285.167969 435.207031 284.988281 434.773438 C 284.808594 434.339844 284.671875 433.894531 284.582031 433.433594 C 284.488281 432.972656 284.445312 432.507812 284.445312 432.042969 L 284.445312 421.332031 C 284.445312 420.863281 284.488281 420.398438 284.582031 419.9375 C 284.671875 419.480469 284.808594 419.035156 284.988281 418.601562 C 285.167969 418.167969 285.386719 417.757812 285.648438 417.367188 C 285.90625 416.976562 286.203125 416.617188 286.535156 416.285156 C 286.867188 415.953125 287.226562 415.65625 287.617188 415.398438 C 288.003906 415.136719 288.417969 414.917969 288.851562 414.738281 C 289.28125 414.558594 289.730469 414.421875 290.1875 414.332031 C 290.648438 414.238281 291.113281 414.195312 291.582031 414.195312 Z M 291.582031 414.195312 " fill-opacity="1" fill-rule="nonzero"/><path fill="#ffffff" d="M 291.582031 355.960938 L 430.917969 355.960938 C 431.386719 355.960938 431.851562 356.007812 432.308594 356.097656 C 432.769531 356.191406 433.214844 356.328125 433.648438 356.503906 C 434.082031 356.683594 434.492188 356.90625 434.882812 357.164062 C 435.273438 357.425781 435.632812 357.722656 435.964844 358.054688 C 436.296875 358.382812 436.59375 358.746094 436.851562 359.132812 C 437.113281 359.523438 437.332031 359.9375 437.511719 360.367188 C 437.691406 360.800781 437.828125 361.25 437.917969 361.707031 C 438.007812 362.167969 438.054688 362.632812 438.054688 363.101562 L 438.054688 373.808594 C 438.054688 374.277344 438.007812 374.742188 437.917969 375.203125 C 437.828125 375.660156 437.691406 376.109375 437.511719 376.542969 C 437.332031 376.972656 437.113281 377.386719 436.851562 377.773438 C 436.59375 378.164062 436.296875 378.527344 435.964844 378.855469 C 435.632812 379.1875 435.273438 379.484375 434.882812 379.746094 C 434.492188 380.003906 434.082031 380.226562 433.648438 380.402344 C 433.214844 380.582031 432.769531 380.71875 432.308594 380.808594 C 431.851562 380.902344 431.386719 380.949219 430.917969 380.949219 L 291.582031 380.949219 C 291.113281 380.949219 290.648438 380.902344 290.1875 380.808594 C 289.730469 380.71875 289.28125 380.582031 288.851562 380.402344 C 288.417969 380.226562 288.003906 380.003906 287.617188 379.746094 C 287.226562 379.484375 286.867188 379.1875 286.535156 378.855469 C 286.203125 378.527344 285.90625 378.164062 285.648438 377.773438 C 285.386719 377.386719 285.167969 376.972656 284.988281 376.542969 C 284.808594 376.109375 284.671875 375.660156 284.582031 375.203125 C 284.488281 374.742188 284.445312 374.277344 284.445312 373.808594 L 284.445312 363.101562 C 284.445312 362.632812 284.488281 362.167969 284.582031 361.707031 C 284.671875 361.25 284.808594 360.800781 284.988281 360.367188 C 285.167969 359.9375 285.386719 359.523438 285.648438 359.132812 C 285.90625 358.746094 286.203125 358.382812 286.535156 358.054688 C 286.867188 357.722656 287.226562 357.425781 287.617188 357.164062 C 288.003906 356.90625 288.417969 356.683594 288.851562 356.503906 C 289.28125 356.328125 289.730469 356.191406 290.1875 356.097656 C 290.648438 356.007812 291.113281 355.960938 291.582031 355.960938 Z M 291.582031 355.960938 " fill-opacity="1" fill-rule="nonzero"/><path fill="#ffffff" d="M 291.582031 472.421875 L 518.417969 472.421875 C 518.882812 472.421875 519.347656 472.46875 519.808594 472.558594 C 520.269531 472.648438 520.714844 472.785156 521.148438 472.964844 C 521.582031 473.144531 521.992188 473.363281 522.382812 473.625 C 522.769531 473.882812 523.132812 474.179688 523.464844 474.511719 C 523.792969 474.84375 524.089844 475.203125 524.351562 475.59375 C 524.613281 475.984375 524.832031 476.394531 525.011719 476.828125 C 525.191406 477.261719 525.324219 477.707031 525.417969 478.167969 C 525.507812 478.625 525.554688 479.089844 525.554688 479.558594 L 525.554688 490.269531 C 525.554688 490.738281 525.507812 491.203125 525.417969 491.660156 C 525.324219 492.121094 525.191406 492.566406 525.011719 493 C 524.832031 493.433594 524.613281 493.84375 524.351562 494.234375 C 524.089844 494.625 523.792969 494.984375 523.464844 495.316406 C 523.132812 495.648438 522.769531 495.941406 522.382812 496.203125 C 521.992188 496.464844 521.582031 496.683594 521.148438 496.863281 C 520.714844 497.042969 520.269531 497.179688 519.808594 497.269531 C 519.347656 497.359375 518.882812 497.40625 518.417969 497.40625 L 291.582031 497.40625 C 291.113281 497.40625 290.648438 497.359375 290.1875 497.269531 C 289.730469 497.179688 289.28125 497.042969 288.851562 496.863281 C 288.417969 496.683594 288.003906 496.464844 287.617188 496.203125 C 287.226562 495.941406 286.867188 495.648438 286.535156 495.316406 C 286.203125 494.984375 285.90625 494.625 285.648438 494.234375 C 285.386719 493.84375 285.167969 493.433594 284.988281 493 C 284.808594 492.566406 284.671875 492.121094 284.582031 491.660156 C 284.488281 491.203125 284.445312 490.738281 284.445312 490.269531 L 284.445312 479.558594 C 284.445312 479.089844 284.488281 478.625 284.582031 478.167969 C 284.671875 477.707031 284.808594 477.261719 284.988281 476.828125 C 285.167969 476.394531 285.386719 475.984375 285.648438 475.59375 C 285.90625 475.203125 286.203125 474.84375 286.535156 474.511719 C 286.867188 474.179688 287.226562 473.882812 287.617188 473.625 C 288.003906 473.363281 288.417969 473.144531 288.851562 472.964844 C 289.28125 472.785156 289.730469 472.648438 290.1875 472.558594 C 290.648438 472.46875 291.113281 472.421875 291.582031 472.421875 Z M 291.582031 472.421875 " fill-opacity="1" fill-rule="nonzero"/><path fill="#ffffff" d="M 291.582031 530.648438 L 518.417969 530.648438 C 518.882812 530.648438 519.347656 530.695312 519.808594 530.785156 C 520.269531 530.878906 520.714844 531.011719 521.148438 531.191406 C 521.582031 531.371094 521.992188 531.589844 522.382812 531.851562 C 522.769531 532.113281 523.132812 532.40625 523.464844 532.738281 C 523.792969 533.070312 524.089844 533.429688 524.351562 533.820312 C 524.613281 534.210938 524.832031 534.621094 525.011719 535.054688 C 525.191406 535.488281 525.324219 535.933594 525.417969 536.394531 C 525.507812 536.855469 525.554688 537.316406 525.554688 537.785156 L 525.554688 548.496094 C 525.554688 548.964844 525.507812 549.429688 525.417969 549.886719 C 525.324219 550.347656 525.191406 550.792969 525.011719 551.226562 C 524.832031 551.660156 524.613281 552.070312 524.351562 552.460938 C 524.089844 552.851562 523.792969 553.210938 523.464844 553.542969 C 523.132812 553.875 522.769531 554.171875 522.382812 554.429688 C 521.992188 554.691406 521.582031 554.910156 521.148438 555.089844 C 520.714844 555.269531 520.269531 555.40625 519.808594 555.496094 C 519.347656 555.589844 518.882812 555.632812 518.417969 555.632812 L 291.582031 555.632812 C 291.113281 555.632812 290.648438 555.589844 290.1875 555.496094 C 289.730469 555.40625 289.28125 555.269531 288.851562 555.089844 C 288.417969 554.910156 288.003906 554.691406 287.617188 554.429688 C 287.226562 554.171875 286.867188 553.875 286.535156 553.542969 C 286.203125 553.210938 285.90625 552.851562 285.648438 552.460938 C 285.386719 552.070312 285.167969 551.660156 284.988281 551.226562 C 284.808594 550.792969 284.671875 550.347656 284.582031 549.886719 C 284.488281 549.429688 284.445312 548.964844 284.445312 548.496094 L 284.445312 537.785156 C 284.445312 537.316406 284.488281 536.855469 284.582031 536.394531 C 284.671875 535.933594 284.808594 535.488281 284.988281 535.054688 C 285.167969 534.621094 285.386719 534.210938 285.648438 533.820312 C 285.90625 533.429688 286.203125 533.070312 286.535156 532.738281 C 286.867188 532.40625 287.226562 532.113281 287.617188 531.851562 C 288.003906 531.589844 288.417969 531.371094 288.851562 531.191406 C 289.28125 531.011719 289.730469 530.878906 290.1875 530.785156 C 290.648438 530.695312 291.113281 530.648438 291.582031 530.648438 Z M 291.582031 530.648438 " fill-opacity="1" fill-rule="nonzero"/><g clip-path="url(#9051390fe9)"><g clip-path="url(#afb50efb43)"><g clip-path="url(#94bc95a241)"><g clip-path="url(#f8a89da78e)"><path fill="#000000" d="M 559.175781 560.554688 C 558.917969 560.976562 558.597656 561.355469 558.226562 561.675781 L 509.519531 603.957031 C 507.921875 605.34375 505.621094 605.53125 503.816406 604.425781 C 502.703125 603.734375 501.933594 602.644531 501.644531 601.421875 C 501.46875 600.683594 501.453125 599.890625 501.65625 599.109375 L 517.402344 536.53125 C 517.511719 536.058594 517.714844 535.605469 517.972656 535.175781 L 523.894531 525.539062 L 565.09375 550.917969 Z M 559.175781 560.554688 " fill-opacity="1" fill-rule="nonzero"/></g></g></g></g><g clip-path="url(#4828694dd0)"><g clip-path="url(#2e9220ee25)"><g clip-path="url(#06ad761258)"><g clip-path="url(#474ecf3944)"><path fill="#000000" d="M 650.628906 365.511719 C 661.648438 372.285156 664.046875 389.925781 655.820312 403.292969 L 646.191406 418.976562 L 658.554688 426.589844 C 659.644531 427.261719 660.425781 428.335938 660.722656 429.585938 C 661.023438 430.835938 660.820312 432.152344 660.136719 433.238281 L 617.058594 503.347656 C 615.660156 505.625 612.679688 506.335938 610.402344 504.933594 C 609.265625 504.234375 608.511719 503.140625 608.222656 501.933594 C 607.9375 500.726562 608.117188 499.410156 608.816406 498.28125 L 649.359375 432.308594 L 641.105469 427.226562 L 570.15625 542.695312 L 528.960938 517.316406 L 599.890625 401.84375 C 597.617188 400.441406 597.113281 398.332031 598.511719 396.046875 C 599.90625 393.761719 603.53125 395.777344 605.367188 395.335938 L 605.382812 395.335938 L 614.816406 378.789062 C 623.320312 364.9375 639.246094 358.511719 650.628906 365.511719 Z M 650.628906 365.511719 " fill-opacity="1" fill-rule="nonzero"/></g></g></g></g></svg>